<svg width="248" height="37" viewBox="0 0 248 37" fill="none" xmlns="http://www.w3.org/2000/svg">
<path d="M0.486512 35.1422C0.0127596 35.4261 -0.141177 36.0402 0.142684 36.514C0.426545 36.9877 1.04071 37.1417 1.51446 36.8578L0.486512 35.1422ZM248 36L242.334 25.9391L236.454 35.877L248 36ZM1.51446 36.8578C2.35659 36.3532 3.20094 35.8537 4.04749 35.3592L3.0387 33.6322C2.18573 34.1305 1.33499 34.6338 0.486512 35.1422L1.51446 36.8578ZM9.16133 32.4484C10.8789 31.4962 12.6052 30.5646 14.34 29.6539L13.4103 27.8831C11.6621 28.8009 9.92244 29.7397 8.19163 30.6992L9.16133 32.4484ZM19.5802 26.9793C21.3391 26.1071 23.1064 25.2561 24.8818 24.4267L24.0353 22.6147C22.2457 23.4507 20.4644 24.3084 18.6917 25.1876L19.5802 26.9793ZM30.2406 21.9997C32.0378 21.2112 33.8431 20.4446 35.6561 19.7002L34.8965 17.85C33.0687 18.6005 31.2488 19.3733 29.4371 20.1682L30.2406 21.9997ZM41.1244 17.5315C42.9565 16.8303 44.7964 16.1517 46.6436 15.4958L45.9745 13.6111C44.1118 14.2724 42.2568 14.9567 40.4095 15.6636L41.1244 17.5315ZM52.2106 13.5958C54.0741 12.9853 55.9448 12.3978 57.8226 11.8336L57.2471 9.9182C55.3534 10.4871 53.467 11.0796 51.5879 11.6952L52.2106 13.5958ZM63.4764 10.2114C65.3671 9.6944 67.2647 9.2009 69.1689 8.7312L68.6899 6.7894C66.7694 7.26312 64.8557 7.76083 62.9489 8.28225L63.4764 10.2114ZM74.8966 7.39473C76.8102 6.97365 78.7302 6.5765 80.6564 6.20355L80.2762 4.24002C78.3334 4.61619 76.3968 5.01676 74.4668 5.44147L74.8966 7.39473ZM86.4441 5.15913C88.3759 4.83587 90.3136 4.53688 92.2572 4.26241L91.9776 2.28206C90.0171 2.55891 88.0625 2.8605 86.114 3.18656L86.4441 5.15913ZM98.0901 3.51455C100.035 3.29038 101.986 3.09074 103.942 2.91585L103.764 0.923799C101.791 1.1002 99.8231 1.30159 97.8612 1.5277L98.0901 3.51455ZM109.805 2.46706C111.758 2.34262 113.716 2.24285 115.679 2.16798L115.603 0.169437C113.623 0.244952 111.648 0.345587 109.678 0.471102L109.805 2.46706ZM121.558 2.01866C122.538 2.00623 123.519 2 124.5 2V0C123.51 0 122.521 0.00628209 121.533 0.0188167L121.558 2.01866ZM124.5 2C125.482 2 126.463 2.00623 127.443 2.01866L127.468 0.0188171C126.48 0.00628221 125.491 0 124.5 0V2ZM133.322 2.16799C135.285 2.24285 137.243 2.34262 139.196 2.46706L139.323 0.471104C137.353 0.345589 135.378 0.244953 133.398 0.169438L133.322 2.16799ZM145.059 2.91585C147.015 3.09074 148.966 3.29039 150.911 3.51455L151.14 1.5277C149.178 1.30159 147.21 1.10021 145.237 0.923801L145.059 2.91585ZM156.744 4.26241C158.687 4.53688 160.625 4.83587 162.557 5.15913L162.887 3.18656C160.938 2.8605 158.984 2.55891 157.023 2.28206L156.744 4.26241ZM168.345 6.20356C170.271 6.57651 172.191 6.97365 174.104 7.39473L174.534 5.44147C172.604 5.01676 170.668 4.61619 168.725 4.24002L168.345 6.20356ZM179.832 8.7312C181.736 9.2009 183.634 9.69439 185.525 10.2114L186.052 8.28225C184.145 7.76083 182.232 7.26312 180.311 6.7894L179.832 8.7312ZM191.178 11.8336C193.056 12.3978 194.927 12.9853 196.79 13.5958L197.413 11.6952C195.534 11.0796 193.648 10.4871 191.754 9.9182L191.178 11.8336ZM202.357 15.4958C204.205 16.1517 206.044 16.8303 207.877 17.5315L208.591 15.6636C206.744 14.9567 204.889 14.2724 203.027 13.6111L202.357 15.4958ZM213.345 19.7002C215.158 20.4446 216.963 21.2112 218.76 21.9997L219.564 20.1682C217.752 19.3733 215.932 18.6005 214.104 17.85L213.345 19.7002ZM224.119 24.4267C225.895 25.2561 227.662 26.1071 229.421 26.9794L230.309 25.1876C228.537 24.3084 226.755 23.4507 224.966 22.6147L224.119 24.4267ZM234.661 29.6539C236.396 30.5646 238.122 31.4962 239.84 32.4484L240.809 30.6992C239.079 29.7397 237.339 28.8009 235.591 27.8831L234.661 29.6539ZM0.486512 35.1422C0.0127596 35.4261 -0.141177 36.0402 0.142684 36.514C0.426545 36.9877 1.04071 37.1417 1.51446 36.8578L0.486512 35.1422ZM248 36L242.334 25.9391L236.454 35.877L248 36ZM1.51446 36.8578C2.35659 36.3532 3.20094 35.8537 4.04749 35.3592L3.0387 33.6322C2.18573 34.1305 1.33499 34.6338 0.486512 35.1422L1.51446 36.8578ZM9.16133 32.4484C10.8789 31.4962 12.6052 30.5646 14.34 29.6539L13.4103 27.8831C11.6621 28.8009 9.92244 29.7397 8.19163 30.6992L9.16133 32.4484ZM19.5802 26.9793C21.3391 26.1071 23.1064 25.2561 24.8818 24.4267L24.0353 22.6147C22.2457 23.4507 20.4644 24.3084 18.6917 25.1876L19.5802 26.9793ZM30.2406 21.9997C32.0378 21.2112 33.8431 20.4446 35.6561 19.7002L34.8965 17.85C33.0687 18.6005 31.2488 19.3733 29.4371 20.1682L30.2406 21.9997ZM41.1244 17.5315C42.9565 16.8303 44.7964 16.1517 46.6436 15.4958L45.9745 13.6111C44.1118 14.2724 42.2568 14.9567 40.4095 15.6636L41.1244 17.5315ZM52.2106 13.5958C54.0741 12.9853 55.9448 12.3978 57.8226 11.8336L57.2471 9.9182C55.3534 10.4871 53.467 11.0796 51.5879 11.6952L52.2106 13.5958ZM63.4764 10.2114C65.3671 9.6944 67.2647 9.2009 69.1689 8.7312L68.6899 6.7894C66.7694 7.26312 64.8557 7.76083 62.9489 8.28225L63.4764 10.2114ZM74.8966 7.39473C76.8102 6.97365 78.7302 6.5765 80.6564 6.20355L80.2762 4.24002C78.3334 4.61619 76.3968 5.01676 74.4668 5.44147L74.8966 7.39473ZM86.4441 5.15913C88.3759 4.83587 90.3136 4.53688 92.2572 4.26241L91.9776 2.28206C90.0171 2.55891 88.0625 2.8605 86.114 3.18656L86.4441 5.15913ZM98.0901 3.51455C100.035 3.29038 101.986 3.09074 103.942 2.91585L103.764 0.923799C101.791 1.1002 99.8231 1.30159 97.8612 1.5277L98.0901 3.51455ZM109.805 2.46706C111.758 2.34262 113.716 2.24285 115.679 2.16798L115.603 0.169437C113.623 0.244952 111.648 0.345587 109.678 0.471102L109.805 2.46706ZM121.558 2.01866C122.538 2.00623 123.519 2 124.5 2V0C123.51 0 122.521 0.00628209 121.533 0.0188167L121.558 2.01866ZM124.5 2C125.482 2 126.463 2.00623 127.443 2.01866L127.468 0.0188171C126.48 0.00628221 125.491 0 124.5 0V2ZM133.322 2.16799C135.285 2.24285 137.243 2.34262 139.196 2.46706L139.323 0.471104C137.353 0.345589 135.378 0.244953 133.398 0.169438L133.322 2.16799ZM145.059 2.91585C147.015 3.09074 148.966 3.29039 150.911 3.51455L151.14 1.5277C149.178 1.30159 147.21 1.10021 145.237 0.923801L145.059 2.91585ZM156.744 4.26241C158.687 4.53688 160.625 4.83587 162.557 5.15913L162.887 3.18656C160.938 2.8605 158.984 2.55891 157.023 2.28206L156.744 4.26241ZM168.345 6.20356C170.271 6.57651 172.191 6.97365 174.104 7.39473L174.534 5.44147C172.604 5.01676 170.668 4.61619 168.725 4.24002L168.345 6.20356ZM179.832 8.7312C181.736 9.2009 183.634 9.69439 185.525 10.2114L186.052 8.28225C184.145 7.76083 182.232 7.26312 180.311 6.7894L179.832 8.7312ZM191.178 11.8336C193.056 12.3978 194.927 12.9853 196.79 13.5958L197.413 11.6952C195.534 11.0796 193.648 10.4871 191.754 9.9182L191.178 11.8336ZM202.357 15.4958C204.205 16.1517 206.044 16.8303 207.877 17.5315L208.591 15.6636C206.744 14.9567 204.889 14.2724 203.027 13.6111L202.357 15.4958ZM213.345 19.7002C215.158 20.4446 216.963 21.2112 218.76 21.9997L219.564 20.1682C217.752 19.3733 215.932 18.6005 214.104 17.85L213.345 19.7002ZM224.119 24.4267C225.895 25.2561 227.662 26.1071 229.421 26.9794L230.309 25.1876C228.537 24.3084 226.755 23.4507 224.966 22.6147L224.119 24.4267ZM234.661 29.6539C236.396 30.5646 238.122 31.4962 239.84 32.4484L240.809 30.6992C239.079 29.7397 237.339 28.8009 235.591 27.8831L234.661 29.6539Z" fill="#30023B"/>
</svg>
